PathFileType  4	(X/Y/Z) C:\Users\antoi\Documents\MyRepositories\mobilecap\ResultsAnalysis
DataRate	CameraRate	NumFrames	NumMarkers	Units	OrigDataRate	OrigDataStartFrame	OrigNumFrames
100.0	100.0	7	51	mm	100.0	18	140
Frame#	Time	r_knee			r_shank_antsup			r_ankle			r_calc			r_5meta			r_toe			L_knee			L_shank_antsup			L_ankle			L_calc			L_5meta			L_toe			r_sh2			r_sh3			r_sh4			L_sh2			L_sh3			r_thigh1			r_thigh2			r_thigh3			r_thigh4			r_thigh5			L_thigh1			L_thigh2			L_thigh3			L_thigh4			r.ASIS			r.PSIS			L.ASIS			L.PSIS			C7			R_Shoulder			L_Shoulder			R_Sternum			L_Sternum			R_humerus			R_elbow_med			R_elbow_lat			R_forearm			R_wrist_radius			R_wrist_ulna			L_humerus			L_elbow_med			L_elbow_lat			L_forearm			L_wrist_radius			L_wrist_ulna			R_HJC			L_HJC			R_HJC_reg			L_HJC_reg			
		X1	Y1	Z1	X2	Y2	Z2	X3	Y3	Z3	X4	Y4	Z4	X5	Y5	Z5	X6	Y6	Z6	X7	Y7	Z7	X8	Y8	Z8	X9	Y9	Z9	X10	Y10	Z10	X11	Y11	Z11	X12	Y12	Z12	X13	Y13	Z13	X14	Y14	Z14	X15	Y15	Z15	X16	Y16	Z16	X17	Y17	Z17	X18	Y18	Z18	X19	Y19	Z19	X20	Y20	Z20	X21	Y21	Z21	X22	Y22	Z22	X23	Y23	Z23	X24	Y24	Z24	X25	Y25	Z25	X26	Y26	Z26	X27	Y27	Z27	X28	Y28	Z28	X29	Y29	Z29	X30	Y30	Z30	X31	Y31	Z31	X32	Y32	Z32	X33	Y33	Z33	X34	Y34	Z34	X35	Y35	Z35	X36	Y36	Z36	X37	Y37	Z37	X38	Y38	Z38	X39	Y39	Z39	X40	Y40	Z40	X41	Y41	Z41	X42	Y42	Z42	X43	Y43	Z43	X44	Y44	Z44	X45	Y45	Z45	X46	Y46	Z46	X47	Y47	Z47	X48	Y48	Z48	X49	Y49	Z49	X50	Y50	Z50	X51	Y51	Z51	

18	0.17000000	99.88911	537.91924	-54.54091	149.68104	451.30740	-72.43213	138.85970	115.44328	-125.41411	61.16914	74.63498	-175.70695	259.51813	46.15257	-93.15338	315.15491	79.49045	-157.74960	-16.32050	516.13375	-368.55919	-70.62350	450.56623	-384.48906	-341.92706	269.26412	-302.82769	-416.87306	318.42711	-244.22780	-363.96800	123.94301	-312.25814	-301.07048	95.99040	-255.75274	154.26972	340.16392	-57.12161	87.11310	454.12946	-30.41101	73.26354	338.58437	-32.01313	-122.29520	522.84921	-365.42545	-211.43471	440.86283	-348.98844	107.29048	870.98996	-29.28374	131.76706	763.63672	-36.15675	84.41595	726.35715	-4.68566	0.83161	842.70006	-5.30076	28.47889	731.60043	-17.43186	44.67510	809.88888	-376.34425	66.46045	671.61469	-370.18824	-63.19035	792.84241	-384.99995	-47.06770	657.34179	-382.73021	69.82456	1077.43261	-71.39169	-118.78554	1067.74293	-119.78446	43.44826	1051.24924	-321.91639	-134.12659	1062.21601	-229.18914	-35.30247	1610.33746	-246.69214	35.24871	1557.78901	-73.41926	1.44192	1516.55547	-407.26788	74.96166	1510.09964	-211.85186	68.13809	1499.31833	-265.49969	18.00025	1402.44462	3.19288	-107.20333	1222.86924	-28.84960	-86.76446	1238.88568	51.89477	-56.35897	1069.17289	84.08717	-31.27104	973.44789	78.34669	-69.80997	987.33735	103.67006	-0.31721	1395.17853	-485.81777	0.23167	1147.47530	-448.56802	11.85733	1172.73823	-528.66326	82.58502	1145.62401	-549.07759	229.59866	1044.88468	-559.58892	203.12082	1015.32490	-570.83912	-1.11752	953.11027	-73.34308	-29.51173	939.43536	-277.90038	19.10732	980.36448	-95.26336	-4.07475	972.00656	-260.59063	
19	0.18000000	104.77175	538.26821	-53.74363	153.49092	450.98837	-71.27693	139.22719	115.52541	-125.66041	61.27358	74.72523	-175.71214	259.59975	46.09729	-93.06946	315.35385	78.83366	-157.99399	11.57010	519.70811	-369.37431	-41.60575	453.79098	-384.88261	-315.50691	275.96891	-303.58457	-391.23853	324.52766	-245.54790	-336.40796	131.05903	-314.08586	-273.64489	103.30735	-257.06310	156.16939	339.66295	-56.36882	90.27919	454.47972	-30.22906	74.84056	339.17183	-32.53779	-92.49843	526.77162	-366.68796	-182.81442	446.05748	-350.55629	117.26742	871.09304	-26.56964	140.30521	763.20224	-33.38692	91.72164	726.75914	-2.95217	10.26873	844.47354	-4.04652	36.29684	733.06421	-16.52207	62.06311	813.96853	-376.00969	87.99400	676.17926	-370.52152	-45.29701	793.72348	-383.49082	-25.02752	658.75967	-381.90471	82.65554	1079.31530	-70.41392	-106.18483	1069.78529	-118.40601	55.84260	1053.33128	-320.83234	-121.83530	1063.76374	-227.70020	-21.65393	1612.11064	-247.86654	50.43831	1560.05223	-75.15010	13.07474	1517.39290	-408.46599	88.45078	1511.51446	-213.68217	81.21020	1500.52910	-267.21793	34.56980	1405.08883	2.16597	-90.93390	1225.24582	-26.16136	-68.89007	1241.66416	54.08826	-35.73860	1072.39621	86.31433	-9.30345	977.03179	80.52742	-47.64590	990.40496	106.37939	8.99110	1394.85340	-485.98140	5.59803	1147.73399	-444.75680	16.94685	1171.50112	-525.40390	86.91930	1142.55636	-546.09622	231.68057	1038.49811	-556.61756	204.45452	1009.35423	-567.12935	11.75335	955.03039	-72.18586	-17.04686	941.33501	-276.68229	31.76546	982.93811	-93.74064	8.11311	973.83309	-258.91366	
20	0.19000000	109.52334	538.62669	-53.12333	157.17367	450.75618	-70.47611	139.57305	115.63571	-125.90007	61.39027	74.82596	-175.72501	259.68348	46.10815	-92.98526	315.53287	78.25189	-158.23493	38.75449	524.03046	-369.99518	-13.04209	457.59662	-385.10377	-288.20487	281.36232	-304.28402	-365.62404	328.04893	-246.84004	-305.90216	136.68603	-316.13343	-242.98770	109.98669	-258.42372	158.16777	339.30580	-55.82444	93.52389	454.90399	-30.13245	76.60271	339.82799	-32.92496	-63.57996	530.97775	-367.72678	-154.58324	450.95636	-352.01713	126.76247	871.01300	-24.19899	148.53652	762.66392	-31.04618	98.78169	727.06019	-1.53689	19.39320	846.09197	-2.91515	43.83084	734.42769	-15.83911	79.31262	818.51588	-375.63075	109.19862	681.28655	-370.76425	-27.45752	795.11821	-382.00526	-3.16117	660.82304	-380.90856	95.31501	1080.92697	-69.35252	-93.75725	1071.70532	-116.94590	68.14821	1055.46737	-319.74834	-109.61364	1065.39668	-226.15151	-8.10794	1613.77351	-249.15180	65.41450	1562.19288	-76.95221	24.50919	1518.00508	-409.80655	101.69094	1512.81373	-215.54677	94.14556	1501.63227	-269.01165	50.94481	1407.62799	1.16523	-74.74869	1227.39875	-23.42721	-51.10524	1244.28303	56.28849	-15.03048	1075.55375	88.48713	12.83473	980.61255	82.62901	-25.27619	993.41325	109.00402	17.89011	1394.19994	-486.16078	10.79229	1147.85614	-440.85181	21.80562	1170.04990	-521.99398	90.92028	1139.23651	-543.05399	233.24807	1031.69438	-553.50264	205.23604	1003.07196	-563.27852	24.40677	956.71653	-71.11548	-4.76813	943.29196	-275.57419	44.17676	985.21566	-92.35618	20.20719	975.67661	-257.43723	
21	0.20000000	114.27377	539.04053	-52.66578	160.82718	450.64548	-70.04978	139.88190	115.77279	-126.09939	61.50544	74.93227	-175.73723	259.75764	46.16549	-92.91091	315.67291	77.75958	-158.45906	65.20950	528.97526	-370.40995	14.98175	461.93320	-385.20019	-260.07675	285.29547	-305.00042	-339.62616	329.24656	-248.07173	-273.24325	140.69726	-318.32603	-209.93976	115.54404	-259.93314	160.39487	339.12860	-55.51234	96.99601	455.44180	-30.05587	78.69417	340.58493	-33.07824	-35.67293	535.36829	-368.49741	-126.80507	455.36904	-353.29272	135.94021	870.85870	-22.27282	156.62361	762.16894	-29.23957	105.78064	727.36313	-0.52318	28.38401	847.63797	-1.88523	51.22515	735.76208	-15.35195	96.45575	823.47243	-375.17947	130.15676	686.90290	-370.85734	-9.61139	796.97308	-380.63391	18.59623	663.45573	-379.84902	107.73566	1082.36633	-68.13961	-81.51175	1073.56119	-115.46104	80.38124	1057.68838	-318.57287	-97.43485	1067.16263	-224.61953	5.34865	1615.34744	-250.54221	80.17404	1564.25505	-78.81002	35.79344	1518.42948	-411.26468	114.76444	1514.06235	-217.42758	106.95996	1502.66476	-270.84877	67.10175	1410.11676	0.21786	-58.59912	1229.33875	-20.70738	-33.40544	1246.79493	58.46264	5.72963	1078.68505	90.58179	35.08794	984.22782	84.62575	-2.74685	996.41347	111.51321	26.45810	1393.27557	-486.30890	15.89477	1147.88000	-436.85742	26.48146	1168.43966	-518.41167	94.59525	1135.72517	-539.94683	234.28299	1024.49736	-550.23011	205.43191	996.51490	-559.26074	36.78454	958.25696	-70.08064	7.37489	945.34307	-274.53673	56.30943	987.26662	-91.04610	32.23449	977.59175	-256.09130	
22	0.21000000	119.06847	539.52013	-52.34642	164.47585	450.65619	-69.93787	140.14870	115.93212	-126.24091	61.60401	75.03646	-175.74473	259.81320	46.24221	-92.85608	315.76746	77.35824	-158.65547	90.98944	534.37235	-370.62154	42.44411	466.64060	-385.23396	-231.21317	287.67967	-305.79265	-312.93008	328.34179	-249.19013	-239.14251	143.08866	-320.63983	-175.32585	119.64930	-261.68801	162.84615	339.12024	-55.40380	100.69534	456.09074	-29.96048	81.10513	341.44022	-32.99635	-8.82569	539.75006	-369.03908	-99.47970	459.06647	-354.36385	144.97644	870.69993	-20.83663	164.68607	761.79646	-28.01768	112.86988	727.72762	0.06930	37.40490	849.16439	-0.92415	58.60939	737.11164	-15.00474	113.50709	828.75312	-374.61940	150.92910	692.97108	-370.72526	8.27491	799.20981	-379.46868	40.28469	666.56563	-378.84475	119.85800	1083.71476	-66.73077	-69.44765	1075.39458	-114.00790	92.56610	1060.01941	-317.23576	-85.28430	1069.08252	-223.17077	18.72613	1616.84094	-252.03476	94.73019	1566.28192	-80.71618	46.97831	1518.69600	-412.80421	127.75968	1515.30096	-219.31487	119.66464	1503.64434	-272.70210	83.03215	1412.61347	-0.67263	-42.42864	1231.09923	-18.06808	-15.78218	1249.26844	60.57911	26.51291	1081.83970	92.57614	57.41611	987.92648	86.49663	19.89152	999.46665	113.88360	34.79981	1392.15209	-486.38553	20.98368	1147.84989	-432.78229	31.02680	1166.74523	-514.64764	97.96386	1132.09357	-536.75848	234.75763	1016.94664	-546.77504	205.00763	989.73271	-555.03776	48.84766	959.72255	-69.04544	19.43523	947.51222	-273.54260	68.15409	989.16191	-89.75406	44.21060	979.61910	-254.80460	
23	0.22000000	123.88100	540.04970	-52.12558	168.08532	450.76216	-70.01793	140.37450	116.10694	-126.32446	61.67094	75.12578	-175.74737	259.84639	46.31473	-92.82449	315.82511	77.04041	-158.81747	116.18702	540.02271	-370.64720	69.36309	471.48294	-385.26596	-201.71568	288.49121	-306.68738	-285.38146	325.49282	-250.14617	-204.09585	143.96071	-323.10627	-139.74536	122.19519	-263.77861	165.40586	339.23528	-55.42350	104.50242	456.82054	-29.83523	83.70000	342.37064	-32.75490	16.98546	543.87823	-369.45106	-72.56557	461.83196	-355.25630	154.02830	870.57074	-19.86639	172.78411	761.55808	-27.36419	120.15083	728.16935	0.29152	46.56772	850.68826	0.01338	66.08359	738.48984	-14.72264	130.47032	834.25777	-373.91179	171.53530	699.40459	-370.30368	26.19957	801.73370	-378.58521	61.90434	670.05687	-378.00734	131.65314	1085.02549	-65.11280	-57.55283	1077.22311	-112.63461	104.74026	1062.46436	-315.70331	-73.16061	1071.14352	-221.85545	32.03288	1618.24802	-253.62897	109.10875	1568.30703	-82.67153	58.11473	1518.81851	-414.38237	140.73909	1516.53064	-221.20439	132.26928	1504.56492	-274.55066	98.75004	1415.16990	-1.52064	-26.17911	1232.73360	-15.57082	1.77220	1251.76868	62.60674	47.29869	1085.06944	94.45006	79.79621	991.76323	88.22688	42.58515	1002.63584	116.09890	43.03229	1390.90209	-486.36516	26.11263	1147.81378	-428.63568	35.48704	1165.05082	-510.71339	101.06319	1128.41063	-533.46107	234.63639	1009.10145	-543.11122	203.93727	982.78929	-550.56776	60.58873	961.15692	-67.99228	31.46543	949.79815	-272.57762	79.73576	990.95810	-88.43829	56.14678	981.76996	-253.51748	
24	0.23000000	128.64746	540.59837	-51.95318	171.59786	450.92121	-70.14486	140.56178	116.28938	-126.36470	61.69325	75.18278	-175.74770	259.85936	46.36904	-92.81319	315.86471	76.79218	-158.94503	140.89065	545.72413	-370.51351	95.77467	476.20587	-385.33926	-171.66429	287.76033	-307.67723	-256.97271	320.80016	-250.92018	-168.34464	143.48835	-325.79238	-103.48480	123.29257	-266.28228	167.90988	339.41171	-55.47717	108.24857	457.58828	-29.69175	86.28567	343.34470	-32.46869	41.83714	547.51322	-369.84787	-46.00120	463.50921	-356.01496	163.21313	870.47873	-19.27610	180.92509	761.41632	-27.19245	127.66548	728.66726	0.25168	55.91098	852.19344	0.97464	73.70532	739.87986	-14.42752	147.33898	839.88086	-373.02799	191.94776	706.08812	-369.56022	44.12667	804.44738	-378.02782	83.41294	673.83613	-377.42795	143.13598	1086.31976	-63.30439	-45.80602	1079.03981	-111.37487	116.94361	1064.99746	-313.97960	-61.06978	1073.29928	-220.70356	45.27659	1619.55061	-255.32758	123.34232	1570.34781	-84.68513	69.25123	1518.79182	-415.95844	153.72605	1517.71667	-223.09718	144.78758	1505.39834	-276.38103	114.28975	1417.81956	-2.35200	-9.80552	1234.30669	-13.25945	19.26087	1254.34295	64.51450	68.07370	1088.42130	96.18608	102.21503	995.78998	89.80954	65.28360	1005.97783	118.14873	51.27128	1389.58478	-486.24019	31.30440	1147.81895	-424.42383	39.89377	1163.43622	-506.64236	103.94790	1124.73168	-530.01911	233.88422	1001.03795	-539.21811	202.21122	975.75754	-545.81501	72.03546	962.57381	-66.91948	43.51045	952.16946	-271.63708	91.10670	992.68996	-87.07467	68.05492	984.02000	-252.18927	
